# xmcd
#
# Track frame offsets:
#	150
#	16948
#	30260
#	42252
#	54889
#	67208
#	80076
#	94541
#	108818
#	120692
#	131585
#	145870
#	158550
#	171353
#	186521
#	199226
#
# Disc length: 2822 seconds
#
# Revision: 0
# Processed by: cddbd v1.5.2PL0 Copyright (c) Steve Scherf et al.
# Submitted via: audiograbber 1.83.01
#
DISCID=d50b0410
DTITLE=Various Artist - Das waren Schlager 1946
DYEAR=1946
DGENRE=Retro
TTITLE0=Kirsten Heiberg - Komm', Zauber der Nacht
TTITLE1=Horst Winter - Holli-ahi
TTITLE2=Detlev Lais - Servus, Baby
TTITLE3=Jenny Even - Ich möchte so gerne
TTITLE4=Evelyn Künneke - In Tirol steht ein Berg
TTITLE5=Benny de Weille - Schön wie ein Gedicht
TTITLE6=Eva Busch - Auch für uns ist die Stunde gekommen
TTITLE7=Lubo D´Orio - Sentimental Journey
TTITLE8=Harry James And His Music Makers - Trumpet Blues And Cantabile
TTITLE9=Jo Stafford - Symphonie
TTITLE10=Hal Derwin - The Old Lamplighter
TTITLE11=Peggy Lee - Mañana (Is Soon Enough For Me)
TTITLE12=Andy Russell - Amor
TTITLE13=Nat King Cole - Embraceable You
TTITLE14=Peggy Lee - It's A Good Day
TTITLE15=Jo Stafford And The Pied Pipers - On The Sunny Side Of The Street
EXTD=
EXTT0=
EXTT1=
EXTT2=
EXTT3=
EXTT4=
EXTT5=
EXTT6=
EXTT7=
EXTT8=
EXTT9=
EXTT10=
EXTT11=
EXTT12=
EXTT13=
EXTT14=
EXTT15=
PLAYORDER=
